<svg width="184" height="693" viewBox="0 0 184 693" fill="none" xmlns="http://www.w3.org/2000/svg">
<g clip-path="url(#clip0_102_1019)">
<path d="M183.44 395.82C182.26 475.34 182.56 555.16 182.71 634.78C182.73 646.98 183.73 655.91 180.43 668.19C178.45 675.55 174.53 687.45 165.8 688.65C133.32 693.04 98.67 691.44 65.88 692.04C49.97 690.29 33.51 690.96 17.76 688.53C11.66 687.59 9.27002 683.51 6.76002 678.35C0.0100245 664.46 -0.119976 649.84 0.0300244 634.72C0.660024 576.77 1.64002 518.61 2.07002 460.69C2.34002 424.44 -0.459976 383.74 2.05002 348.15C3.19002 332.1 9.80002 312.39 18.17 298.74C25.09 287.46 33.8 280.24 38.1 267.04C41.85 255.55 41.57 247.25 41.73 235.63C42.44 184 49.73 134.06 54.34 82.72C54.89 76.68 57.69 64.63 56.03 59.18C55.13 56.26 50.75 55.83 50.99 52.24L57.64 24.46C58.15 17.89 55.03 18.75 54.36 15.16C53.5 10.51 57.11 5.97998 61.15 4.13998C65.66 2.09998 74.35 0.859983 79.33 0.469983C90.12 -0.350017 117.21 -0.770017 126.04 5.03998C128.88 6.89998 132.77 11.42 131.65 15.04C131.34 16.1 129.88 16.71 129.3 18C127.1 22.85 130.71 35.28 131.97 40.81C132.58 43.44 135.21 50.19 135.07 52.21C134.83 56.21 127.13 57.15 129.11 62.86C133.66 117.47 143.39 172.16 144.39 226.97C144.65 240.72 143.1 249.29 147.2 263.22C152.73 281.93 167.48 295.47 175.13 313.38C186.47 339.96 183.86 367.62 183.45 395.81L183.44 395.82Z" fill="#141412"/>
</g>
<defs>
<clipPath id="clip0_102_1019">
<rect width="183.99" height="692.04" fill="white"/>
</clipPath>
</defs>
</svg>
