<svg width="1920" height="273" viewBox="0 0 1920 273" fill="none" xmlns="http://www.w3.org/2000/svg">
<path d="M0 128.164L70.8333 110.059C141.667 91.9548 283.333 55.7458 425 31.6441C566.667 7.08986 708.333 -4.22547 850 1.4322C991.667 7.08986 1133.33 31.9836 1275 61.7429C1416.67 91.9548 1558.33 128.164 1700 134.161C1841.67 140.611 1983.33 115.717 2054.17 104.062L2125 91.9548V273H2054.17C1983.33 273 1841.67 273 1700 273C1558.33 273 1416.67 273 1275 273C1133.33 273 991.667 273 850 273C708.333 273 566.667 273 425 273C283.333 273 141.667 273 70.8333 273H0V128.164Z" fill="white"/>
</svg>
