<svg width="1852" height="337" viewBox="0 0 1852 337" fill="none" xmlns="http://www.w3.org/2000/svg">
<path d="M0 224.667L70.7 187.281C141.4 149.193 282.8 75.474 424.2 74.9474C565.6 75.474 707 149.193 848.4 168.5C989.8 187.807 1131.2 149.193 1272.6 103.031C1414 56.1667 1555.4 0 1696.8 0C1838.2 0 1979.6 56.1667 2050.3 84.25L2121 112.333V337H2050.3C1979.6 337 1838.2 337 1696.8 337C1555.4 337 1414 337 1272.6 337C1131.2 337 989.8 337 848.4 337C707 337 565.6 337 424.2 337C282.8 337 141.4 337 70.7 337H0V224.667Z" fill="#D2D2D2"/>
</svg>
