<svg width="250" height="358" viewBox="0 0 250 358" fill="none" xmlns="http://www.w3.org/2000/svg">
<g clip-path="url(#clip0_102_1048)">
<path d="M42.0967 51.0576C58.7415 63.2679 51.2649 64.0351 48.6767 80.7025L88.2136 79.0423C86.2177 73.8504 65.5811 68.7601 66.8063 63.4343C67.577 60.0814 82.0433 59.4156 84.4693 55.5512C85.6903 53.6109 84.9561 49.3892 86.7126 47.0957C89.459 45.0864 94.3068 30.201 97.2439 31.3051C100.599 32.5676 99.325 42.5087 96.4447 44.4491L112.915 42.8132C114.002 58.8758 111.442 58.7215 96.4447 57.658C96.6557 59.9677 103.033 64.0513 103 65.054C102.98 65.74 99.6617 67.587 98.964 69.2756C98.0552 71.4758 99.467 74.776 96.4447 77.3901L137.625 69.1701V32.9329C142.505 34.8245 148.533 40.1016 152.472 43.6169C157.068 47.7209 161.072 52.6001 165.571 56.8177C161.868 58.3399 160.764 65.6304 159.105 66.7629C155.908 68.9468 148.821 66.1256 145.762 68.2446C144.03 69.4461 143.499 74.6664 144.326 75.6487C145.162 76.6392 165.502 82.7443 168.922 83.9743C168.922 81.9934 165.316 81.3155 166.33 79.0504C167.154 77.2075 177.381 67.4327 180.435 67.5261C181.494 68.2933 185.664 89.2595 187.405 92.6855C189.007 95.8396 192.995 96.4931 195.616 100.946C208.634 123.045 201.449 136.343 193.611 158.109C190.399 158.945 190.435 156.773 188.987 155.345C183.737 150.165 171.559 130.404 166.115 128.801L82.4531 123.378C75.1104 123.386 42.9324 131.577 35.9346 134.662C31.8413 136.469 13.6793 155.767 12.4583 154.813C11.9674 147.705 -1.05876 123.228 0.0608964 118.401C0.393548 116.968 14.3406 94.6624 15.6509 93.3999C18.1742 90.9644 21.951 91.9061 24.6771 87.1608C29.1233 79.4035 32.4742 60.6943 37.3341 53.7042C40.4375 49.2431 70.9401 37.6254 73.3863 39.5333C67.0537 45.7724 74.4654 44.51 75.0333 51.0454H42.0886L42.0967 51.0576Z" fill="#951610"/>
<path d="M214.005 83.6211C212.91 75.9694 202.995 63.5927 201.06 60.1747C199.238 56.9598 195.474 50.331 191.92 50.9439C191.218 51.0657 189.884 51.5894 188.598 54.3416C186.184 52.8396 183.259 43.1339 182.784 42.2408C182.314 41.3559 171.941 39.1477 173.466 38.5144C175.251 37.7716 182.184 40.8485 183.912 39.5698C184.829 38.8919 185.068 36.3914 181.117 27.5584C178.439 26.6979 174.257 25.3542 169.137 23.6859C157.738 19.9716 150.59 17.5604 148.988 17.0368C128.432 10.3309 99.1629 15.1208 99.1953 16.3873C99.2278 17.6091 126.266 12.1494 152.152 25.3624C158.184 28.4393 169.064 33.9965 177.34 44.9687C180.76 49.507 182.464 51.8695 187.182 57.5403C194.618 66.4829 209.149 79.6836 214.009 83.6252L214.005 83.6211Z" fill="#951610"/>
<path d="M177.145 228.951C175.352 232.507 171.324 239.25 163.515 244.227C152.894 250.993 141.807 250.348 137.754 249.869C116.225 247.344 112.765 228.497 98.0959 229.589C86.2016 230.474 86.3882 243.005 68.4372 248.038C64.4534 249.155 52.8918 251.777 40.0482 246.646C29.3668 242.376 23.2249 234.915 20.6895 231.411C26.88 228.882 37.2369 239.355 42.5025 238.596C47.8127 237.829 61.346 232.272 66.3074 229.28C70.6116 226.686 79.5364 217.309 83.1225 216.506C86.8547 215.67 93.2035 222.708 98.7937 222.347C103.609 222.034 109.248 215.99 113.901 215.747C118.952 215.483 131.824 228.44 137.787 231.265C139.953 232.292 153.458 236.725 155.344 236.891C160.241 237.318 171.945 230.734 177.145 228.956V228.951Z" fill="#951610"/>
<path d="M83.7835 149.832C85.106 153.786 85.5319 158.604 82.4853 161.941C68.7695 160.504 54.1491 157.102 40.916 161.819C42.1209 158.758 44.9281 153.043 50.8712 150.027C52.0639 149.422 55.1024 148.054 66.1935 148.281C70.6275 148.371 76.6477 148.72 83.7794 149.836L83.7835 149.832Z" fill="#951610"/>
<path d="M98.6232 358L98.9234 357.769C98.9234 357.769 119.954 341.747 98.6394 320.752C77.2808 341.734 98.323 357.769 98.323 357.769C98.323 357.769 98.4731 357.882 98.6232 358Z" fill="#951610"/>
<path d="M73.4147 329.22C103.126 328.647 97.5036 300.301 97.5036 300.301C97.5036 300.301 97.4549 300.062 97.4103 299.822C97.1669 299.822 96.9235 299.822 96.9235 299.822C96.9235 299.822 68.068 299.973 73.4147 329.216V329.22Z" fill="#951610"/>
<path d="M123.88 329.22C94.1689 328.647 99.7915 300.301 99.7915 300.301C99.7915 300.301 99.8402 300.062 99.8848 299.822C100.128 299.822 100.372 299.822 100.372 299.822C100.372 299.822 129.227 299.973 123.88 329.216V329.22Z" fill="#951610"/>
<path d="M73.4225 299.68C103.134 299.108 97.5114 270.762 97.5114 270.762C97.5114 270.762 97.4627 270.523 97.4181 270.283C97.1747 270.283 96.9313 270.283 96.9313 270.283C96.9313 270.283 68.0758 270.433 73.4225 299.676V299.68Z" fill="#951610"/>
<path d="M123.888 299.68C94.1767 299.108 99.7994 270.762 99.7994 270.762C99.7994 270.762 99.848 270.523 99.8927 270.283C100.136 270.283 100.379 270.283 100.379 270.283C100.379 270.283 129.235 270.433 123.888 299.676V299.68Z" fill="#951610"/>
<path d="M98.5784 240.403C99.1017 244.547 101.305 270.303 72.1082 269.609C68.5383 240.557 94.4365 240.265 98.5784 240.403Z" fill="#951610"/>
<path d="M98.7125 240.403C98.1891 244.547 95.9863 270.303 125.183 269.609C128.753 240.557 102.854 240.265 98.7125 240.403Z" fill="#951610"/>
<path d="M98.6392 324.357V226.057" stroke="#951610" stroke-miterlimit="10"/>
<path d="M63.8083 245.672C63.5567 246.593 63.2079 247.973 62.8712 249.67C62.4493 251.825 62.2626 253.433 62.1977 253.932C61.6785 258.158 59.784 267.462 58.5954 267.385C57.4149 267.308 57.5933 258.016 55.6948 257.801C54.4697 257.663 53.8084 261.482 51.7557 261.653C49.4069 261.852 48.271 257.046 46.0479 257.086C43.2569 257.135 42.3847 265.18 40.0155 265.258C37.188 265.351 35.4923 253.997 33.4315 254.135C30.9772 254.302 31.038 270.149 28.9326 270.283C27.46 270.376 24.8515 262.798 24.742 255.004C24.6771 250.259 25.5736 248.075 25.1192 242.416C24.815 238.649 24.0969 235.605 23.5371 233.628L28.2997 238.686C32.393 240.045 36.4902 241.405 40.5835 242.765C48.3237 243.735 56.064 244.701 63.8042 245.672H63.8083Z" fill="#951610"/>
<path d="M153.56 242.185L164.269 241.401L177.145 229.288C176.995 247.62 177.166 253.364 176.622 253.413C175.912 253.474 174.991 243.569 174.074 243.711C173.352 243.825 173.421 250.019 172.281 250.328C171.494 250.543 170.914 247.726 170.375 247.937C169.482 248.286 170.269 256.343 170.038 265.769C169.888 271.959 169.251 280.679 168.427 280.723C167.653 280.768 166.168 273.181 166.115 265.217C166.075 258.974 166.931 254.72 165.332 252.532C164.683 251.643 163.584 251.034 162.756 251.614C161.357 252.589 161.503 256.396 160.671 256.534C159.742 256.693 159.259 251.996 157.823 251.797C156.768 251.651 156.29 254.091 155.247 254.001C154.533 253.94 154.395 245.858 153.56 242.185Z" fill="#951610"/>
<path d="M67.65 173.664C72.355 173.664 76.1691 169.848 76.1691 165.14C76.1691 160.432 72.355 156.615 67.65 156.615C62.945 156.615 59.1309 160.432 59.1309 165.14C59.1309 169.848 62.945 173.664 67.65 173.664Z" fill="#951610"/>
<path d="M117.491 149.832C116.168 153.786 115.742 158.604 118.789 161.941C132.505 160.504 147.125 157.102 160.358 161.819C159.153 158.758 156.346 153.043 150.403 150.027C149.21 149.422 146.172 148.054 135.081 148.281C130.647 148.371 124.627 148.72 117.495 149.836L117.491 149.832Z" fill="#951610"/>
<path d="M133.625 173.664C138.33 173.664 142.144 169.848 142.144 165.14C142.144 160.432 138.33 156.615 133.625 156.615C128.92 156.615 125.105 160.432 125.105 165.14C125.105 169.848 128.92 173.664 133.625 173.664Z" fill="#951610"/>
<path d="M52.2346 309.268L52.4293 309.118C52.4293 309.118 66.064 298.726 52.2427 285.116C38.393 298.722 52.0358 309.118 52.0358 309.118C52.0358 309.118 52.1332 309.191 52.2305 309.268H52.2346Z" fill="#951610"/>
<path d="M35.8858 290.604C55.1512 290.234 51.5083 271.85 51.5083 271.85C51.5083 271.85 51.4758 271.696 51.4474 271.537C51.2892 271.537 51.131 271.537 51.131 271.537C51.131 271.537 32.4173 271.635 35.8858 290.6V290.604Z" fill="#951610"/>
<path d="M68.6116 290.604C49.3462 290.234 52.9892 271.85 52.9892 271.85L53.05 271.537C53.2082 271.537 53.3664 271.537 53.3664 271.537C53.3664 271.537 72.0801 271.635 68.6116 290.6V290.604Z" fill="#951610"/>
<path d="M52.2466 304.02V240.277" stroke="#951610" stroke-width="0.65" stroke-miterlimit="10"/>
<path d="M144.622 314.521L144.817 314.371C144.817 314.371 158.452 303.979 144.63 290.368C130.781 303.975 144.424 314.371 144.424 314.371C144.424 314.371 144.521 314.444 144.618 314.521H144.622Z" fill="#951610"/>
<path d="M128.274 295.856C147.539 295.487 143.896 277.103 143.896 277.103C143.896 277.103 143.864 276.948 143.836 276.79C143.677 276.79 143.519 276.79 143.519 276.79C143.519 276.79 124.805 276.887 128.274 295.852V295.856Z" fill="#951610"/>
<path d="M160.999 295.856C141.734 295.487 145.377 277.103 145.377 277.103L145.438 276.79C145.596 276.79 145.754 276.79 145.754 276.79C145.754 276.79 164.468 276.887 160.999 295.852V295.856Z" fill="#951610"/>
<path d="M128.278 276.701C147.543 276.331 143.9 257.947 143.9 257.947C143.9 257.947 143.868 257.793 143.84 257.634C143.681 257.634 143.523 257.634 143.523 257.634C143.523 257.634 124.809 257.732 128.278 276.697V276.701Z" fill="#951610"/>
<path d="M161.003 276.701C141.738 276.331 145.381 257.947 145.381 257.947L145.442 257.634C145.6 257.634 145.758 257.634 145.758 257.634C145.758 257.634 164.472 257.732 161.003 276.697V276.701Z" fill="#951610"/>
<path d="M144.63 309.268V245.53" stroke="#951610" stroke-width="0.65" stroke-miterlimit="10"/>
<path d="M228.592 116.197C240.415 116.197 250 106.606 250 94.776C250 82.9456 240.415 73.3552 228.592 73.3552C216.769 73.3552 207.185 82.9456 207.185 94.776C207.185 106.606 216.769 116.197 228.592 116.197Z" fill="#951610"/>
<path d="M156.598 9.2227C149.872 6.10112 139.47 2.15956 126.286 0.63733C94.8382 -2.99167 70.6925 9.80318 61.9949 15.0397C40.6078 27.9238 29.8575 44.9809 25.2085 52.5555C16.5392 66.6737 12.519 79.911 10.519 88.8455C13.3547 79.9638 18.4865 67.1486 28.0198 53.7286C30.5999 50.0956 34.7215 44.3964 40.6524 38.1126C50.3845 27.798 64.9888 15.9043 85.6618 8.94667C118.44 -2.08239 146.772 5.93469 156.602 9.2227H156.598Z" fill="#951610"/>
<path d="M193.652 36.8258C199.153 41.7213 205.331 47.9279 211.485 55.6081C217.307 62.8701 221.822 69.8562 225.311 76.006C224.138 75.8477 222.966 75.6934 221.797 75.5351C218.868 70.4366 199.506 43.2922 193.652 36.8258Z" fill="#951610"/>
<path d="M219.104 70.7288C220.256 70.6882 221.408 70.6517 222.56 70.6111C218.751 66.4747 214.942 62.3383 211.128 58.2019C214.082 61.0596 214.646 63.1989 214.418 64.7495C214.171 66.4219 213.031 67.2541 213.364 68.3826C213.822 69.9332 216.605 70.5015 219.104 70.7288Z" fill="#951610"/>
<path d="M54.7294 30.9845C60.1167 27.2418 63.8124 23.0283 66.21 19.7321C71.4147 19.8945 76.011 17.7796 78.011 14.037C78.4816 13.1521 79.0657 11.6988 79.0982 9.65295L46.6444 29.4663C46.6444 29.4663 38.6769 38.2587 38.2104 38.4941L38.1982 38.5022C38.2145 38.5388 46.4172 36.7649 54.7294 30.9926V30.9845Z" fill="#951610"/>
</g>
<defs>
<clipPath id="clip0_102_1048">
<rect width="250" height="358" fill="white"/>
</clipPath>
</defs>
</svg>
